<svg xmlns="http://www.w3.org/2000/svg" xmlns:xlink="http://www.w3.org/1999/xlink" width="2000" zoomAndPan="magnify" viewBox="0 0 1500 1499.999933" height="2000" preserveAspectRatio="xMidYMid meet" version="1.0"><defs><clipPath id="40e3c3cae0"><path d="M 134.667969 58.125 L 1365.203125 58.125 L 1365.203125 1441.875 L 134.667969 1441.875 Z M 134.667969 58.125 " clip-rule="nonzero"/></clipPath></defs><g clip-path="url(#40e3c3cae0)"><path fill="#5ce1e6" d="M 1349.191406 404.074219 C 1315.992188 346.566406 1242.460938 326.867188 1184.957031 360.066406 C 1142.039062 384.84375 902.453125 557.789062 797.433594 667.855469 C 840.246094 521.878906 870.226562 227.914062 870.226562 178.363281 C 870.226562 111.957031 816.394531 58.132812 749.996094 58.132812 C 683.597656 58.132812 629.765625 111.957031 629.765625 178.363281 C 629.765625 227.914062 659.746094 521.878906 702.558594 667.855469 C 597.539062 557.789062 357.957031 384.84375 315.035156 360.066406 C 257.53125 326.867188 184 346.566406 150.792969 404.074219 C 117.59375 461.585938 137.304688 535.117188 194.808594 568.316406 C 237.714844 593.09375 507.289062 714.113281 655.121094 750.023438 C 507.289062 785.941406 237.714844 906.960938 194.808594 931.734375 C 137.304688 964.933594 117.59375 1038.464844 150.792969 1095.96875 C 184 1153.476562 257.53125 1173.183594 315.035156 1139.984375 C 357.957031 1115.199219 597.539062 942.261719 702.558594 832.1875 C 659.746094 978.171875 629.765625 1272.136719 629.765625 1321.691406 C 629.765625 1388.089844 683.597656 1441.917969 749.996094 1441.917969 C 816.394531 1441.917969 870.226562 1388.089844 870.226562 1321.691406 C 870.226562 1272.136719 840.246094 978.171875 797.433594 832.1875 C 902.453125 942.261719 1142.039062 1115.199219 1184.957031 1139.984375 C 1242.460938 1173.183594 1315.992188 1153.476562 1349.191406 1095.96875 C 1382.398438 1038.464844 1362.699219 964.933594 1305.1875 931.734375 C 1262.277344 906.960938 992.703125 785.941406 844.871094 750.023438 C 992.703125 714.113281 1262.277344 593.09375 1305.1875 568.316406 C 1362.699219 535.117188 1382.398438 461.585938 1349.191406 404.074219 " fill-opacity="1" fill-rule="nonzero"/></g></svg>